<svg xmlns="http://www.w3.org/2000/svg" width="1000" height="580" viewBox="0 0 1000 580" role="img"><title>Form state selectors</title><desc>v26.5.0; jsdom 30.0.1; 9 rounds; 2026-09-07; candidate 4b143c8c. Median milliseconds per query; lower is better. Failed correctness checks have no timing.</desc><style>text{font:14px system-ui,sans-serif;fill:#24292f}.selector{font:16px monospace;font-weight:600}.background{fill:#fff}.bar{transform-box:fill-box;transform-origin:left center;animation:fill 800ms ease-out both}@keyframes fill{from{transform:scaleX(0)}to{transform:scaleX(1)}}@media(prefers-reduced-motion:reduce){.bar{animation:none}}@media(prefers-color-scheme:dark){text{fill:#e6edf3}.background{fill:#0d1117}}</style><rect class="background" width="1000" height="580"/><text x="20" y="28" class="selector">Form state selectors</text><text x="20" y="50">Warm queries on one jsdom document. Median ms/query; lower is better.</text><text x="20" y="80" class="selector">input:enabled</text><text x="20" y="106">nwsapi 2.2.27</text><rect class="bar" x="300" y="92" width="69.98" height="18" fill="#7154d9"/><text x="379.979" y="106">0.0838 ms</text><text x="20" y="131">nwsapi 2.3.0-prerelease</text><rect class="bar" x="300" y="117" width="205.26" height="18" fill="#cb3989"/><text x="515.26" y="131">0.2459 ms</text><text x="20" y="156">@asamuzakjp/dom-selector 8.3.2</text><rect class="bar" x="300" y="142" width="380" height="18" fill="#217dcc"/><text x="690" y="156">0.4552 ms</text><text x="20" y="195" class="selector">input:optional</text><text x="20" y="221">nwsapi 2.2.27</text><rect class="bar" x="300" y="207" width="65" height="18" fill="#7154d9"/><text x="375.001" y="221">0.0779 ms</text><text x="20" y="246">nwsapi 2.3.0-prerelease</text><rect class="bar" x="300" y="232" width="64.8" height="18" fill="#cb3989"/><text x="374.802" y="246">0.0776 ms</text><text x="20" y="271">@asamuzakjp/dom-selector 8.3.2</text><rect class="bar" x="300" y="257" width="187.47" height="18" fill="#217dcc"/><text x="497.472" y="271">0.2246 ms</text><text x="20" y="310" class="selector">input:read-write</text><text x="20" y="336">nwsapi 2.2.27</text><rect class="bar" x="300" y="322" width="112.52" height="18" fill="#7154d9"/><text x="422.524" y="336">0.1348 ms</text><text x="20" y="361">nwsapi 2.3.0-prerelease</text><rect class="bar" x="300" y="347" width="245.62" height="18" fill="#cb3989"/><text x="555.62" y="361">0.2943 ms</text><text x="20" y="386">@asamuzakjp/dom-selector 8.3.2</text><rect class="bar" x="300" y="372" width="288.39" height="18" fill="#217dcc"/><text x="598.392" y="386">0.3455 ms</text><text x="20" y="425" class="selector">button:disabled</text><text x="20" y="451">nwsapi 2.2.27</text><rect class="bar" x="300" y="437" width="270.17" height="18" fill="#7154d9"/><text x="580.171" y="451">0.3237 ms</text><text x="20" y="476">nwsapi 2.3.0-prerelease</text><rect class="bar" x="300" y="462" width="279.04" height="18" fill="#cb3989"/><text x="589.038" y="476">0.3343 ms</text><text x="20" y="501">@asamuzakjp/dom-selector 8.3.2</text><rect class="bar" x="300" y="487" width="358.13" height="18" fill="#217dcc"/><text x="668.134" y="501">0.4290 ms</text><text x="20" y="560">v26.5.0; jsdom 30.0.1; 9 rounds; 2026-09-07; candidate 4b143c8c</text></svg>
