<svg xmlns="http://www.w3.org/2000/svg" width="1000" height="580" viewBox="0 0 1000 580" role="img"><title>Form state selectors</title><desc>components; v26.5.0; jsdom 30.0.1; 9 rounds; 2026-09-08; 6d79033e. Median milliseconds per query; lower is better. Failed correctness checks have no timing.</desc><style>text{font:14px system-ui,sans-serif;fill:#24292f}.selector{font:16px monospace;font-weight:600}.background{fill:#fff}.bar{transform-box:fill-box;transform-origin:left center;animation:fill 800ms ease-out both}@keyframes fill{from{transform:scaleX(0)}to{transform:scaleX(1)}}@media(prefers-reduced-motion:reduce){.bar{animation:none}}@media(prefers-color-scheme:dark){text{fill:#e6edf3}.background{fill:#0d1117}}</style><rect class="background" width="1000" height="580"/><text x="20" y="28" class="selector">Form state selectors</text><text x="20" y="50">Warm queries on one jsdom document. Median ms/query; lower is better.</text><text x="20" y="80" class="selector">input:enabled</text><text x="20" y="106" style="font-weight:700">nwsapi 2.2.27</text><rect class="bar" x="300" y="92" width="72.77" height="18" fill="#7154d9"/><text x="382.77" y="106" style="font-weight:700">0.06 ms</text><text x="20" y="131">nwsapi 2.3.0-prerelease</text><rect class="bar" x="300" y="117" width="196.8" height="18" fill="#cb3989"/><text x="506.804" y="131">0.16 ms</text><text x="20" y="156">@asamuzakjp/dom-selector 8.3.2</text><rect class="bar" x="300" y="142" width="380" height="18" fill="#217dcc"/><text x="690" y="156">0.32 ms</text><text x="20" y="195" class="selector">input:optional</text><text x="20" y="221">nwsapi 2.2.27</text><rect class="bar" x="300" y="207" width="86.89" height="18" fill="#7154d9"/><text x="396.894" y="221">0.07 ms</text><text x="20" y="246" style="font-weight:700">nwsapi 2.3.0-prerelease</text><rect class="bar" x="300" y="232" width="85.3" height="18" fill="#cb3989"/><text x="395.305" y="246" style="font-weight:700">0.07 ms</text><text x="20" y="271">@asamuzakjp/dom-selector 8.3.2</text><rect class="bar" x="300" y="257" width="239.71" height="18" fill="#217dcc"/><text x="549.71" y="271">0.20 ms</text><text x="20" y="310" class="selector">input:read-write</text><text x="20" y="336" style="font-weight:700">nwsapi 2.2.27</text><rect class="bar" x="300" y="322" width="139.6" height="18" fill="#7154d9"/><text x="449.597" y="336" style="font-weight:700">0.12 ms</text><text x="20" y="361">nwsapi 2.3.0-prerelease</text><rect class="bar" x="300" y="347" width="263.21" height="18" fill="#cb3989"/><text x="573.211" y="361">0.22 ms</text><text x="20" y="386">@asamuzakjp/dom-selector 8.3.2</text><rect class="bar" x="300" y="372" width="267.95" height="18" fill="#217dcc"/><text x="577.953" y="386">0.22 ms</text><text x="20" y="425" class="selector">button:disabled</text><text x="20" y="451">nwsapi 2.2.27</text><rect class="bar" x="300" y="437" width="237.13" height="18" fill="#7154d9"/><text x="547.133" y="451">0.20 ms</text><text x="20" y="476" style="font-weight:700">nwsapi 2.3.0-prerelease</text><rect class="bar" x="300" y="462" width="202.69" height="18" fill="#cb3989"/><text x="512.689" y="476" style="font-weight:700">0.17 ms</text><text x="20" y="501">@asamuzakjp/dom-selector 8.3.2</text><rect class="bar" x="300" y="487" width="379.67" height="18" fill="#217dcc"/><text x="689.675" y="501">0.32 ms</text><text x="20" y="560">components; v26.5.0; jsdom 30.0.1; 9 rounds; 2026-09-08; 6d79033e</text></svg>
