<svg xmlns="http://www.w3.org/2000/svg" width="1000" height="580" viewBox="0 0 1000 580" role="img"><title>Basic selectors</title><desc>components; v26.5.0; jsdom 30.0.1; 9 rounds; 2026-09-08; 6d79033e. Median milliseconds per query; lower is better. Failed correctness checks have no timing.</desc><style>text{font:14px system-ui,sans-serif;fill:#24292f}.selector{font:16px monospace;font-weight:600}.background{fill:#fff}.bar{transform-box:fill-box;transform-origin:left center;animation:fill 800ms ease-out both}@keyframes fill{from{transform:scaleX(0)}to{transform:scaleX(1)}}@media(prefers-reduced-motion:reduce){.bar{animation:none}}@media(prefers-color-scheme:dark){text{fill:#e6edf3}.background{fill:#0d1117}}</style><rect class="background" width="1000" height="580"/><text x="20" y="28" class="selector">Basic selectors</text><text x="20" y="50">Warm queries on one jsdom document. Median ms/query; lower is better.</text><text x="20" y="80" class="selector">#in-150</text><text x="20" y="106">nwsapi 2.2.27</text><rect class="bar" x="300" y="92" width="262.45" height="18" fill="#7154d9"/><text x="572.454" y="106">0.42 ms</text><text x="20" y="131" style="font-weight:700">nwsapi 2.3.0-prerelease</text><rect class="bar" x="300" y="117" width="129.68" height="18" fill="#cb3989"/><text x="439.676" y="131" style="font-weight:700">0.21 ms</text><text x="20" y="156">@asamuzakjp/dom-selector 8.3.2</text><rect class="bar" x="300" y="142" width="380" height="18" fill="#217dcc"/><text x="690" y="156">0.61 ms</text><text x="20" y="195" class="selector">.card</text><text x="20" y="221">nwsapi 2.2.27</text><rect class="bar" x="300" y="207" width="31.66" height="18" fill="#7154d9"/><text x="341.664" y="221">0.05 ms</text><text x="20" y="246" style="font-weight:700">nwsapi 2.3.0-prerelease</text><rect class="bar" x="300" y="232" width="31.19" height="18" fill="#cb3989"/><text x="341.192" y="246" style="font-weight:700">0.05 ms</text><text x="20" y="271">@asamuzakjp/dom-selector 8.3.2</text><rect class="bar" x="300" y="257" width="35.22" height="18" fill="#217dcc"/><text x="345.222" y="271">0.06 ms</text><text x="20" y="310" class="selector">button</text><text x="20" y="336">nwsapi 2.2.27</text><rect class="bar" x="300" y="322" width="33.91" height="18" fill="#7154d9"/><text x="343.908" y="336">0.05 ms</text><text x="20" y="361" style="font-weight:700">nwsapi 2.3.0-prerelease</text><rect class="bar" x="300" y="347" width="32.84" height="18" fill="#cb3989"/><text x="342.841" y="361" style="font-weight:700">0.05 ms</text><text x="20" y="386">@asamuzakjp/dom-selector 8.3.2</text><rect class="bar" x="300" y="372" width="38.01" height="18" fill="#217dcc"/><text x="348.015" y="386">0.06 ms</text><text x="20" y="425" class="selector">button.primary</text><text x="20" y="451" style="font-weight:700">nwsapi 2.2.27</text><rect class="bar" x="300" y="437" width="39.3" height="18" fill="#7154d9"/><text x="349.303" y="451" style="font-weight:700">0.06 ms</text><text x="20" y="476">nwsapi 2.3.0-prerelease</text><rect class="bar" x="300" y="462" width="39.33" height="18" fill="#cb3989"/><text x="349.333" y="476">0.06 ms</text><text x="20" y="501">@asamuzakjp/dom-selector 8.3.2</text><rect class="bar" x="300" y="487" width="79.9" height="18" fill="#217dcc"/><text x="389.901" y="501">0.13 ms</text><text x="20" y="560">components; v26.5.0; jsdom 30.0.1; 9 rounds; 2026-09-08; 6d79033e</text></svg>
