<svg xmlns="http://www.w3.org/2000/svg" width="1000" height="580" viewBox="0 0 1000 580" role="img"><title>Logical selectors</title><desc>v26.5.0; jsdom 30.0.1; 9 rounds; 2026-09-07; candidate 4b143c8c. Median milliseconds per query; lower is better. Failed correctness checks have no timing.</desc><style>text{font:14px system-ui,sans-serif;fill:#24292f}.selector{font:16px monospace;font-weight:600}.background{fill:#fff}.bar{transform-box:fill-box;transform-origin:left center;animation:fill 800ms ease-out both}@keyframes fill{from{transform:scaleX(0)}to{transform:scaleX(1)}}@media(prefers-reduced-motion:reduce){.bar{animation:none}}@media(prefers-color-scheme:dark){text{fill:#e6edf3}.background{fill:#0d1117}}</style><rect class="background" width="1000" height="580"/><text x="20" y="28" class="selector">Logical selectors</text><text x="20" y="50">Warm queries on one jsdom document. Median ms/query; lower is better.</text><text x="20" y="80" class="selector">button:not(.missing)</text><text x="20" y="106">nwsapi 2.2.27</text><rect class="bar" x="300" y="92" width="23.72" height="18" fill="#7154d9"/><text x="333.722" y="106">0.1187 ms</text><text x="20" y="131">nwsapi 2.3.0-prerelease</text><rect class="bar" x="300" y="117" width="37.81" height="18" fill="#cb3989"/><text x="347.813" y="131">0.1891 ms</text><text x="20" y="156">@asamuzakjp/dom-selector 8.3.2</text><rect class="bar" x="300" y="142" width="129.07" height="18" fill="#217dcc"/><text x="439.073" y="156">0.6456 ms</text><text x="20" y="195" class="selector">:is(button, input)</text><text x="20" y="221">nwsapi 2.2.27</text><rect class="bar" x="300" y="207" width="301.98" height="18" fill="#7154d9"/><text x="611.979" y="221">1.5105 ms</text><text x="20" y="246">nwsapi 2.3.0-prerelease</text><rect class="bar" x="300" y="232" width="312.34" height="18" fill="#cb3989"/><text x="622.344" y="246">1.5624 ms</text><text x="20" y="271">@asamuzakjp/dom-selector 8.3.2</text><rect class="bar" x="300" y="257" width="380" height="18" fill="#217dcc"/><text x="690" y="271">1.9008 ms</text><text x="20" y="310" class="selector">:where(.card) &gt; button</text><text x="20" y="336">nwsapi 2.2.27</text><rect class="bar" x="300" y="322" width="25.02" height="18" fill="#7154d9"/><text x="335.017" y="336">0.1251 ms</text><text x="20" y="361">nwsapi 2.3.0-prerelease</text><rect class="bar" x="300" y="347" width="24.07" height="18" fill="#cb3989"/><text x="334.072" y="361">0.1204 ms</text><text x="20" y="386">@asamuzakjp/dom-selector 8.3.2</text><rect class="bar" x="300" y="372" width="19.18" height="18" fill="#217dcc"/><text x="329.178" y="386">0.0959 ms</text><text x="20" y="425" class="selector">div:has(&gt; button)</text><text x="20" y="451">nwsapi 2.2.27</text><rect class="bar" x="300" y="437" width="185.46" height="18" fill="#7154d9"/><text x="495.458" y="451">0.9277 ms</text><text x="20" y="476">nwsapi 2.3.0-prerelease</text><rect class="bar" x="300" y="462" width="202.66" height="18" fill="#cb3989"/><text x="512.66" y="476">1.0137 ms</text><text x="20" y="501">@asamuzakjp/dom-selector 8.3.2</text><rect class="bar" x="300" y="487" width="107.13" height="18" fill="#217dcc"/><text x="417.132" y="501">0.5359 ms</text><text x="20" y="560">v26.5.0; jsdom 30.0.1; 9 rounds; 2026-09-07; candidate 4b143c8c</text></svg>
