<svg xmlns="http://www.w3.org/2000/svg" width="1000" height="580" viewBox="0 0 1000 580" role="img"><title>Position selectors</title><desc>v26.5.0; jsdom 30.0.1; 9 rounds; 2026-09-07; candidate 4b143c8c. Median milliseconds per query; lower is better. Failed correctness checks have no timing.</desc><style>text{font:14px system-ui,sans-serif;fill:#24292f}.selector{font:16px monospace;font-weight:600}.background{fill:#fff}.bar{transform-box:fill-box;transform-origin:left center;animation:fill 800ms ease-out both}@keyframes fill{from{transform:scaleX(0)}to{transform:scaleX(1)}}@media(prefers-reduced-motion:reduce){.bar{animation:none}}@media(prefers-color-scheme:dark){text{fill:#e6edf3}.background{fill:#0d1117}}</style><rect class="background" width="1000" height="580"/><text x="20" y="28" class="selector">Position selectors</text><text x="20" y="50">Warm queries on one jsdom document. Median ms/query; lower is better.</text><text x="20" y="80" class="selector">div:first-child</text><text x="20" y="106">nwsapi 2.2.27</text><rect class="bar" x="300" y="92" width="130.76" height="18" fill="#7154d9"/><text x="440.756" y="106">0.1188 ms</text><text x="20" y="131">nwsapi 2.3.0-prerelease</text><rect class="bar" x="300" y="117" width="108.27" height="18" fill="#cb3989"/><text x="418.266" y="131">0.0984 ms</text><text x="20" y="156">@asamuzakjp/dom-selector 8.3.2</text><rect class="bar" x="300" y="142" width="380" height="18" fill="#217dcc"/><text x="690" y="156">0.3454 ms</text><text x="20" y="195" class="selector">div:last-child</text><text x="20" y="221">nwsapi 2.2.27</text><rect class="bar" x="300" y="207" width="137.01" height="18" fill="#7154d9"/><text x="447.012" y="221">0.1245 ms</text><text x="20" y="246">nwsapi 2.3.0-prerelease</text><rect class="bar" x="300" y="232" width="99.08" height="18" fill="#cb3989"/><text x="409.078" y="246">0.0900 ms</text><text x="20" y="271">@asamuzakjp/dom-selector 8.3.2</text><rect class="bar" x="300" y="257" width="205.24" height="18" fill="#217dcc"/><text x="515.239" y="271">0.1865 ms</text><text x="20" y="310" class="selector">div:nth-child(2n)</text><text x="20" y="336">nwsapi 2.2.27</text><rect class="bar" x="300" y="322" width="200.55" height="18" fill="#7154d9"/><text x="510.546" y="336">0.1823 ms</text><text x="20" y="361">nwsapi 2.3.0-prerelease</text><rect class="bar" x="300" y="347" width="151.38" height="18" fill="#cb3989"/><text x="461.375" y="361">0.1376 ms</text><text x="20" y="386">@asamuzakjp/dom-selector 8.3.2</text><rect class="bar" x="300" y="372" width="81.12" height="18" fill="#217dcc"/><text x="391.12" y="386">0.0737 ms</text><text x="20" y="425" class="selector">div:nth-last-child(3)</text><text x="20" y="451">nwsapi 2.2.27</text><rect class="bar" x="300" y="437" width="125.01" height="18" fill="#7154d9"/><text x="435.009" y="451">0.1136 ms</text><text x="20" y="476">nwsapi 2.3.0-prerelease</text><rect class="bar" x="300" y="462" width="136.05" height="18" fill="#cb3989"/><text x="446.047" y="476">0.1236 ms</text><text x="20" y="501">@asamuzakjp/dom-selector 8.3.2</text><rect class="bar" x="300" y="487" width="77.33" height="18" fill="#217dcc"/><text x="387.328" y="501">0.0703 ms</text><text x="20" y="560">v26.5.0; jsdom 30.0.1; 9 rounds; 2026-09-07; candidate 4b143c8c</text></svg>
