<svg xmlns="http://www.w3.org/2000/svg" width="1100" height="833" viewBox="0 0 1100 833" role="img" aria-labelledby="title desc"><title id="title">nwsapi</title><desc id="desc">Warm and cold first-query times for nwsapi and @asamuzakjp/dom-selector through jsdom. Shorter lines are faster. Warm times use microseconds; cold times use milliseconds. Each column has its own scale, starting at zero. Cold means the first query on a fresh document, excluding document creation and explicit NWSAPI factory setup.</desc><defs><linearGradient id="bg" x2="1" y2="1"><stop stop-color="#101d30"/><stop offset="1" stop-color="#0b1220"/></linearGradient></defs><style>text{font-family:Arial,Helvetica,sans-serif;fill:#f0f5fa}
.muted{fill:#aabbd0;font-size:16px}
.code{font-family:Consolas,Menlo,monospace;font-size:18px;fill:#dce6f1}
.time{font-size:15px;font-variant-numeric:tabular-nums}
.bar{transform-box:fill-box;transform-origin:left center;animation:grow 750ms cubic-bezier(.22,1,.36,1) 1 both}
@keyframes grow{from{transform:scaleX(0)}to{transform:scaleX(1)}}
@media(prefers-reduced-motion:reduce){.bar{animation:none}}</style><rect width="1100" height="833" rx="24" fill="url(#bg)"/><rect x=".5" y=".5" width="1099" height="832" rx="24" fill="none" stroke="#2b3a50"/><text x="48" y="68" class="code" style="font-size:42px;font-weight:700">nwsapi</text><text x="1052" y="68" text-anchor="end" font-size="42" font-weight="700" style="fill:#baf471">Up to 8.2×</text><rect x="48" y="96" width="100" height="32" rx="6" fill="#223048"/><text x="64" y="118" class="code">nwsapi</text><path d="M48 133h100" stroke="#a8ee8b" stroke-width="2"/><rect x="181" y="96" width="317" height="32" rx="6" fill="#223048"/><text x="195" y="118" class="code">@asamuzakjp/dom-selector</text><path d="M181 133h317" stroke="#a4aff7" stroke-width="2"/><text x="48" y="184" class="muted">Shorter lines are faster.</text><text x="420" y="174" font-size="23" font-weight="700">Warm</text><text x="420" y="198" class="muted">0–7 μs per query</text><text x="790" y="174" font-size="23" font-weight="700">Cold</text><text x="790" y="198" class="muted">0–3 ms per query</text><text x="48" y="233" class="code">.card</text><path d="M420 223h190" stroke="#223048" stroke-width="2"/><rect x="420" y="222" width="9.45" height="2" fill="#a8ee8b" class="bar" style="animation-delay:0ms"/><text x="708" y="228" text-anchor="end" class="time" style="fill:#a8ee8b">0.35 μs</text><path d="M420 235h190" stroke="#223048" stroke-width="2"/><rect x="420" y="234" width="39.5" height="2" fill="#a4aff7" class="bar" style="animation-delay:0ms"/><text x="708" y="240" text-anchor="end" class="time" style="fill:#a4aff7">1.46 μs</text><path d="M790 223h190" stroke="#223048" stroke-width="2"/><rect x="790" y="222" width="120.17" height="2" fill="#a8ee8b" class="bar" style="animation-delay:0ms"/><text x="1052" y="228" text-anchor="end" class="time" style="fill:#a8ee8b">1.90 ms</text><path d="M790 235h190" stroke="#223048" stroke-width="2"/><rect x="790" y="234" width="73.07" height="2" fill="#a4aff7" class="bar" style="animation-delay:0ms"/><text x="1052" y="240" text-anchor="end" class="time" style="fill:#a4aff7">1.15 ms</text><text x="48" y="272" class="code">button</text><path d="M420 262h190" stroke="#223048" stroke-width="2"/><rect x="420" y="261" width="8.01" height="2" fill="#a8ee8b" class="bar" style="animation-delay:35ms"/><text x="708" y="267" text-anchor="end" class="time" style="fill:#a8ee8b">0.30 μs</text><path d="M420 274h190" stroke="#223048" stroke-width="2"/><rect x="420" y="273" width="53.05" height="2" fill="#a4aff7" class="bar" style="animation-delay:35ms"/><text x="708" y="279" text-anchor="end" class="time" style="fill:#a4aff7">1.95 μs</text><path d="M790 262h190" stroke="#223048" stroke-width="2"/><rect x="790" y="261" width="42.63" height="2" fill="#a8ee8b" class="bar" style="animation-delay:35ms"/><text x="1052" y="267" text-anchor="end" class="time" style="fill:#a8ee8b">0.67 ms</text><path d="M790 274h190" stroke="#223048" stroke-width="2"/><rect x="790" y="273" width="71.33" height="2" fill="#a4aff7" class="bar" style="animation-delay:35ms"/><text x="1052" y="279" text-anchor="end" class="time" style="fill:#a4aff7">1.13 ms</text><text x="48" y="311" class="code">button.primary</text><path d="M420 301h190" stroke="#223048" stroke-width="2"/><rect x="420" y="300" width="10.94" height="2" fill="#a8ee8b" class="bar" style="animation-delay:70ms"/><text x="708" y="306" text-anchor="end" class="time" style="fill:#a8ee8b">0.40 μs</text><path d="M420 313h190" stroke="#223048" stroke-width="2"/><rect x="420" y="312" width="66.2" height="2" fill="#a4aff7" class="bar" style="animation-delay:70ms"/><text x="708" y="318" text-anchor="end" class="time" style="fill:#a4aff7">2.44 μs</text><path d="M790 301h190" stroke="#223048" stroke-width="2"/><rect x="790" y="300" width="114.55" height="2" fill="#a8ee8b" class="bar" style="animation-delay:70ms"/><text x="1052" y="306" text-anchor="end" class="time" style="fill:#a8ee8b">1.81 ms</text><path d="M790 313h190" stroke="#223048" stroke-width="2"/><rect x="790" y="312" width="74.12" height="2" fill="#a4aff7" class="bar" style="animation-delay:70ms"/><text x="1052" y="318" text-anchor="end" class="time" style="fill:#a4aff7">1.17 ms</text><text x="48" y="350" class="code">input.input</text><path d="M420 340h190" stroke="#223048" stroke-width="2"/><rect x="420" y="339" width="11.17" height="2" fill="#a8ee8b" class="bar" style="animation-delay:105ms"/><text x="708" y="345" text-anchor="end" class="time" style="fill:#a8ee8b">0.41 μs</text><path d="M420 352h190" stroke="#223048" stroke-width="2"/><rect x="420" y="351" width="91.62" height="2" fill="#a4aff7" class="bar" style="animation-delay:105ms"/><text x="708" y="357" text-anchor="end" class="time" style="fill:#a4aff7">3.38 μs</text><path d="M790 340h190" stroke="#223048" stroke-width="2"/><rect x="790" y="339" width="112.65" height="2" fill="#a8ee8b" class="bar" style="animation-delay:105ms"/><text x="1052" y="345" text-anchor="end" class="time" style="fill:#a8ee8b">1.78 ms</text><path d="M790 352h190" stroke="#223048" stroke-width="2"/><rect x="790" y="351" width="75.23" height="2" fill="#a4aff7" class="bar" style="animation-delay:105ms"/><text x="1052" y="357" text-anchor="end" class="time" style="fill:#a4aff7">1.19 ms</text><text x="48" y="389" class="code">.card &gt; button.primary</text><path d="M420 379h190" stroke="#223048" stroke-width="2"/><rect x="420" y="378" width="13.47" height="2" fill="#a8ee8b" class="bar" style="animation-delay:140ms"/><text x="708" y="384" text-anchor="end" class="time" style="fill:#a8ee8b">0.50 μs</text><path d="M420 391h190" stroke="#223048" stroke-width="2"/><rect x="420" y="390" width="68.38" height="2" fill="#a4aff7" class="bar" style="animation-delay:140ms"/><text x="708" y="396" text-anchor="end" class="time" style="fill:#a4aff7">2.52 μs</text><path d="M790 379h190" stroke="#223048" stroke-width="2"/><rect x="790" y="378" width="132.39" height="2" fill="#a8ee8b" class="bar" style="animation-delay:140ms"/><text x="1052" y="384" text-anchor="end" class="time" style="fill:#a8ee8b">2.09 ms</text><path d="M790 391h190" stroke="#223048" stroke-width="2"/><rect x="790" y="390" width="73.33" height="2" fill="#a4aff7" class="bar" style="animation-delay:140ms"/><text x="1052" y="396" text-anchor="end" class="time" style="fill:#a4aff7">1.16 ms</text><text x="48" y="428" class="code">[data-testid]</text><path d="M420 418h190" stroke="#223048" stroke-width="2"/><rect x="420" y="417" width="33.14" height="2" fill="#a8ee8b" class="bar" style="animation-delay:175ms"/><text x="708" y="423" text-anchor="end" class="time" style="fill:#a8ee8b">1.22 μs</text><path d="M420 430h190" stroke="#223048" stroke-width="2"/><rect x="420" y="429" width="151.55" height="2" fill="#a4aff7" class="bar" style="animation-delay:175ms"/><text x="708" y="435" text-anchor="end" class="time" style="fill:#a4aff7">5.58 μs</text><path d="M790 418h190" stroke="#223048" stroke-width="2"/><rect x="790" y="417" width="48.7" height="2" fill="#a8ee8b" class="bar" style="animation-delay:175ms"/><text x="1052" y="423" text-anchor="end" class="time" style="fill:#a8ee8b">0.77 ms</text><path d="M790 430h190" stroke="#223048" stroke-width="2"/><rect x="790" y="429" width="77.55" height="2" fill="#a4aff7" class="bar" style="animation-delay:175ms"/><text x="1052" y="435" text-anchor="end" class="time" style="fill:#a4aff7">1.22 ms</text><text x="48" y="467" class="code">div &gt; button</text><path d="M420 457h190" stroke="#223048" stroke-width="2"/><rect x="420" y="456" width="11.77" height="2" fill="#a8ee8b" class="bar" style="animation-delay:210ms"/><text x="708" y="462" text-anchor="end" class="time" style="fill:#a8ee8b">0.43 μs</text><path d="M420 469h190" stroke="#223048" stroke-width="2"/><rect x="420" y="468" width="55.01" height="2" fill="#a4aff7" class="bar" style="animation-delay:210ms"/><text x="708" y="474" text-anchor="end" class="time" style="fill:#a4aff7">2.03 μs</text><path d="M790 457h190" stroke="#223048" stroke-width="2"/><rect x="790" y="456" width="46.26" height="2" fill="#a8ee8b" class="bar" style="animation-delay:210ms"/><text x="1052" y="462" text-anchor="end" class="time" style="fill:#a8ee8b">0.73 ms</text><path d="M790 469h190" stroke="#223048" stroke-width="2"/><rect x="790" y="468" width="73.16" height="2" fill="#a4aff7" class="bar" style="animation-delay:210ms"/><text x="1052" y="474" text-anchor="end" class="time" style="fill:#a4aff7">1.16 ms</text><text x="48" y="506" class="code">:where(.card) &gt; button</text><path d="M420 496h190" stroke="#223048" stroke-width="2"/><rect x="420" y="495" width="11.95" height="2" fill="#a8ee8b" class="bar" style="animation-delay:245ms"/><text x="708" y="501" text-anchor="end" class="time" style="fill:#a8ee8b">0.44 μs</text><path d="M420 508h190" stroke="#223048" stroke-width="2"/><rect x="420" y="507" width="56.58" height="2" fill="#a4aff7" class="bar" style="animation-delay:245ms"/><text x="708" y="513" text-anchor="end" class="time" style="fill:#a4aff7">2.08 μs</text><path d="M790 496h190" stroke="#223048" stroke-width="2"/><rect x="790" y="495" width="47.85" height="2" fill="#a8ee8b" class="bar" style="animation-delay:245ms"/><text x="1052" y="501" text-anchor="end" class="time" style="fill:#a8ee8b">0.76 ms</text><path d="M790 508h190" stroke="#223048" stroke-width="2"/><rect x="790" y="507" width="75.69" height="2" fill="#a4aff7" class="bar" style="animation-delay:245ms"/><text x="1052" y="513" text-anchor="end" class="time" style="fill:#a4aff7">1.20 ms</text><text x="48" y="545" class="code">div:nth-child(2n)</text><path d="M420 535h190" stroke="#223048" stroke-width="2"/><rect x="420" y="534" width="24.64" height="2" fill="#a8ee8b" class="bar" style="animation-delay:280ms"/><text x="708" y="540" text-anchor="end" class="time" style="fill:#a8ee8b">0.91 μs</text><path d="M420 547h190" stroke="#223048" stroke-width="2"/><rect x="420" y="546" width="88.48" height="2" fill="#a4aff7" class="bar" style="animation-delay:280ms"/><text x="708" y="552" text-anchor="end" class="time" style="fill:#a4aff7">3.26 μs</text><path d="M790 535h190" stroke="#223048" stroke-width="2"/><rect x="790" y="534" width="47.4" height="2" fill="#a8ee8b" class="bar" style="animation-delay:280ms"/><text x="1052" y="540" text-anchor="end" class="time" style="fill:#a8ee8b">0.75 ms</text><path d="M790 547h190" stroke="#223048" stroke-width="2"/><rect x="790" y="546" width="83.37" height="2" fill="#a4aff7" class="bar" style="animation-delay:280ms"/><text x="1052" y="552" text-anchor="end" class="time" style="fill:#a4aff7">1.32 ms</text><text x="48" y="584" class="code">input, button</text><path d="M420 574h190" stroke="#223048" stroke-width="2"/><rect x="420" y="573" width="28.84" height="2" fill="#a8ee8b" class="bar" style="animation-delay:315ms"/><text x="708" y="579" text-anchor="end" class="time" style="fill:#a8ee8b">1.06 μs</text><path d="M420 586h190" stroke="#223048" stroke-width="2"/><rect x="420" y="585" width="169.3" height="2" fill="#a4aff7" class="bar" style="animation-delay:315ms"/><text x="708" y="591" text-anchor="end" class="time" style="fill:#a4aff7">6.24 μs</text><path d="M790 574h190" stroke="#223048" stroke-width="2"/><rect x="790" y="573" width="67.42" height="2" fill="#a8ee8b" class="bar" style="animation-delay:315ms"/><text x="1052" y="579" text-anchor="end" class="time" style="fill:#a8ee8b">1.06 ms</text><path d="M790 586h190" stroke="#223048" stroke-width="2"/><rect x="790" y="585" width="78.66" height="2" fill="#a4aff7" class="bar" style="animation-delay:315ms"/><text x="1052" y="591" text-anchor="end" class="time" style="fill:#a4aff7">1.24 ms</text><text x="48" y="623" class="code">:is(button, input)</text><path d="M420 613h190" stroke="#223048" stroke-width="2"/><rect x="420" y="612" width="33.8" height="2" fill="#a8ee8b" class="bar" style="animation-delay:350ms"/><text x="708" y="618" text-anchor="end" class="time" style="fill:#a8ee8b">1.25 μs</text><path d="M420 625h190" stroke="#223048" stroke-width="2"/><rect x="420" y="624" width="63.21" height="2" fill="#a4aff7" class="bar" style="animation-delay:350ms"/><text x="708" y="630" text-anchor="end" class="time" style="fill:#a4aff7">2.33 μs</text><path d="M790 613h190" stroke="#223048" stroke-width="2"/><rect x="790" y="612" width="50.64" height="2" fill="#a8ee8b" class="bar" style="animation-delay:350ms"/><text x="1052" y="618" text-anchor="end" class="time" style="fill:#a8ee8b">0.80 ms</text><path d="M790 625h190" stroke="#223048" stroke-width="2"/><rect x="790" y="624" width="78.44" height="2" fill="#a4aff7" class="bar" style="animation-delay:350ms"/><text x="1052" y="630" text-anchor="end" class="time" style="fill:#a4aff7">1.24 ms</text><text x="48" y="662" class="code">button:not(.missing)</text><path d="M420 652h190" stroke="#223048" stroke-width="2"/><rect x="420" y="651" width="11.76" height="2" fill="#a8ee8b" class="bar" style="animation-delay:385ms"/><text x="708" y="657" text-anchor="end" class="time" style="fill:#a8ee8b">0.43 μs</text><path d="M420 664h190" stroke="#223048" stroke-width="2"/><rect x="420" y="663" width="76.59" height="2" fill="#a4aff7" class="bar" style="animation-delay:385ms"/><text x="708" y="669" text-anchor="end" class="time" style="fill:#a4aff7">2.82 μs</text><path d="M790 652h190" stroke="#223048" stroke-width="2"/><rect x="790" y="651" width="45.35" height="2" fill="#a8ee8b" class="bar" style="animation-delay:385ms"/><text x="1052" y="657" text-anchor="end" class="time" style="fill:#a8ee8b">0.72 ms</text><path d="M790 664h190" stroke="#223048" stroke-width="2"/><rect x="790" y="663" width="76.45" height="2" fill="#a4aff7" class="bar" style="animation-delay:385ms"/><text x="1052" y="669" text-anchor="end" class="time" style="fill:#a4aff7">1.21 ms</text><path d="M48 693h1004" stroke="#304159"/><text x="48" y="719" class="muted">Warm queries repeat a selector. Cold queries run it first on a fresh document.</text><text x="48" y="742" class="muted">Warm speedups were 1.9–8.2×. Cold results vary. The columns use separate scales.</text><text x="48" y="765" class="muted"><tspan class="code">nwsapi</tspan> 2.3.0-prerelease · <tspan class="code">@asamuzakjp/dom-selector</tspan> 8.3.2 · <tspan class="code">jsdom</tspan> 30.0.1</text><text x="48" y="788" class="muted">Direct engine API vs <tspan class="code">jsdom</tspan> querySelector · Node.js 26.5.0 · Apple M3 Max</text></svg>
