<svg xmlns="http://www.w3.org/2000/svg" width="1100" height="660" viewBox="0 0 1100 660" role="img"><title>Documentation</title><desc>Median latency on a logarithmic axis. Left is faster. Whiskers show the observed round minimum and maximum, not confidence intervals. Relative speed is competitor time divided by candidate time. Chromium 154.0.8037.0 · 9 rounds · battery · 2026-10-03 · 6f0e4fb103d2</desc><defs><linearGradient id="background" x2="1" y2="1"><stop stop-color="#17283b"/><stop offset="1" stop-color="#0b1320"/></linearGradient></defs><rect width="1100" height="660" rx="22" fill="url(#background)"/><style>text{font-family:Arial,Helvetica,sans-serif;fill:#ecf2f8}.muted{fill:#8fa5bd;font-size:13px}.tick{fill:#a9b9cc;font-size:12px}.selector{font-family:Menlo,Consolas,monospace;font-size:15px}</style><text x="36" y="43" font-size="24" font-weight="700">Documentation</text><text x="1064" y="43" text-anchor="end" class="muted">WARM QUERIES / ALL RESULTS</text><circle cx="42" cy="77" r="5" fill="#a9efb4"/><text x="55" y="82" font-size="14">nwsapi 2.3.0-prerelease</text><circle cx="522" cy="77" r="5" fill="#bfacff"/><text x="535" y="82" font-size="14">@asamuzakjp/dom-selector 9.2.4</text><path d="M400 130v451" stroke="#28384b" stroke-dasharray="3 6"/><text x="400" y="123" text-anchor="middle" class="tick">10.00µs</text><path d="M670 130v451" stroke="#28384b" stroke-dasharray="3 6"/><text x="670" y="123" text-anchor="middle" class="tick">100.00µs</text><path d="M940 130v451" stroke="#28384b" stroke-dasharray="3 6"/><text x="940" y="123" text-anchor="middle" class="tick">1.00ms</text><g><title>ul li a</title><text x="36" y="158" class="selector">ul li a</text><text x="36" y="194" class="muted">1.87× relative speed</text><g fill="#a9efb4"><title>155.05µs median; observed rounds 134.20µs–167.47µs</title><path d="M704.49 187h25.98" stroke="#a9efb4" stroke-width="3" stroke-opacity=".5"/><circle cx="721.426" cy="187" r="6"/><text x="974" y="192" font-size="14">155.05µs</text></g><g fill="#bfacff"><title>289.46µs median; observed rounds 281.70µs–297.10µs</title><path d="M791.44 212h6.24" stroke="#bfacff" stroke-width="3" stroke-opacity=".5"/><circle cx="794.631" cy="212" r="6"/><text x="974" y="217" font-size="14">289.46µs</text></g><path d="M36 238h1028" stroke="#263446"/></g><g><title>dl dd a</title><text x="36" y="262" class="selector">dl dd a</text><text x="36" y="298" class="muted">1.62× relative speed</text><g fill="#a9efb4"><title>17.54µs median; observed rounds 17.33µs–17.99µs</title><path d="M464.48 291h4.4" stroke="#a9efb4" stroke-width="3" stroke-opacity=".5"/><circle cx="465.855" cy="291" r="6"/><text x="974" y="296" font-size="14">17.54µs</text></g><g fill="#bfacff"><title>28.47µs median; observed rounds 26.95µs–28.90µs</title><path d="M516.24 316h8.2" stroke="#bfacff" stroke-width="3" stroke-opacity=".5"/><circle cx="522.668" cy="316" r="6"/><text x="974" y="321" font-size="14">28.47µs</text></g><path d="M36 342h1028" stroke="#263446"/></g><g><title>table tr td</title><text x="36" y="366" class="selector">table tr td</text><text x="36" y="402" class="muted">2.92× relative speed</text><g fill="#a9efb4"><title>16.05µs median; observed rounds 15.69µs–16.43µs</title><path d="M452.82 395h5.38" stroke="#a9efb4" stroke-width="3" stroke-opacity=".5"/><circle cx="455.456" cy="395" r="6"/><text x="974" y="400" font-size="14">16.05µs</text></g><g fill="#bfacff"><title>46.78µs median; observed rounds 46.17µs–47.59µs</title><path d="M579.39 420h3.55" stroke="#bfacff" stroke-width="3" stroke-opacity=".5"/><circle cx="580.925" cy="420" r="6"/><text x="974" y="425" font-size="14">46.78µs</text></g><path d="M36 446h1028" stroke="#263446"/></g><g><title>div.example &gt; p &gt; a</title><text x="36" y="470" class="selector">div.example &gt; p &gt; a</text><text x="36" y="506" class="muted">2.35× relative speed</text><g fill="#a9efb4"><title>20.16µs median; observed rounds 18.79µs–20.53µs</title><path d="M473.96 499h10.38" stroke="#a9efb4" stroke-width="3" stroke-opacity=".5"/><circle cx="482.22" cy="499" r="6"/><text x="974" y="504" font-size="14">20.16µs</text></g><g fill="#bfacff"><title>47.39µs median; observed rounds 46.81µs–50.07µs</title><path d="M581 524h7.9" stroke="#bfacff" stroke-width="3" stroke-opacity=".5"/><circle cx="582.437" cy="524" r="6"/><text x="974" y="529" font-size="14">47.39µs</text></g><path d="M36 550h1028" stroke="#263446"/></g><text x="36" y="613" class="muted">Logarithmic latency · Left is faster · Whiskers: observed round range · Ratio above 1× favors the first engine</text><text x="36" y="638" class="muted">Chromium 154.0.8037.0 · 9 rounds · battery · 2026-10-03 · 6f0e4fb103d2</text></svg>
