<svg xmlns="http://www.w3.org/2000/svg" width="1000" height="580" viewBox="0 0 1000 580" role="img"><title>Documentation queries</title><desc>documentation; v26.5.0; jsdom 30.0.1; 9 rounds; 2026-09-08; 1401322b. Median milliseconds per query; lower is better. Failed correctness checks have no timing.</desc><style>text{font:14px system-ui,sans-serif;fill:#24292f}.selector{font:16px monospace;font-weight:600}.background{fill:#fff}.bar{transform-box:fill-box;transform-origin:left center;animation:fill 800ms ease-out both}@keyframes fill{from{transform:scaleX(0)}to{transform:scaleX(1)}}@media(prefers-reduced-motion:reduce){.bar{animation:none}}@media(prefers-color-scheme:dark){text{fill:#e6edf3}.background{fill:#0d1117}}</style><rect class="background" width="1000" height="580"/><text x="20" y="28" class="selector">Documentation queries</text><text x="20" y="50">Warm queries on one jsdom document. Median ms/query; lower is better.</text><text x="20" y="80" class="selector">ul li a</text><text x="20" y="106">nwsapi 2.2.27</text><rect class="bar" x="300" y="92" width="351.34" height="18" fill="#7154d9"/><text x="661.337" y="106">2.02 ms</text><text x="20" y="131" style="font-weight:700">nwsapi 2.3.0-prerelease</text><rect class="bar" x="300" y="117" width="52.23" height="18" fill="#cb3989"/><text x="362.226" y="131" style="font-weight:700">0.30 ms</text><text x="20" y="156">@asamuzakjp/dom-selector 8.3.2</text><rect class="bar" x="300" y="142" width="154.96" height="18" fill="#217dcc"/><text x="464.956" y="156">0.89 ms</text><text x="20" y="195" class="selector">dl dd a</text><text x="20" y="221">nwsapi 2.2.27</text><rect class="bar" x="300" y="207" width="380" height="18" fill="#7154d9"/><text x="690" y="221">2.18 ms</text><text x="20" y="246" style="font-weight:700">nwsapi 2.3.0-prerelease</text><rect class="bar" x="300" y="232" width="5.73" height="18" fill="#cb3989"/><text x="315.731" y="246" style="font-weight:700">0.03 ms</text><text x="20" y="271">@asamuzakjp/dom-selector 8.3.2</text><rect class="bar" x="300" y="257" width="13.69" height="18" fill="#217dcc"/><text x="323.686" y="271">0.08 ms</text><text x="20" y="310" class="selector">table tr td</text><text x="20" y="336">nwsapi 2.2.27</text><rect class="bar" x="300" y="322" width="19.82" height="18" fill="#7154d9"/><text x="329.825" y="336">0.11 ms</text><text x="20" y="361" style="font-weight:700">nwsapi 2.3.0-prerelease</text><rect class="bar" x="300" y="347" width="5.89" height="18" fill="#cb3989"/><text x="315.892" y="361" style="font-weight:700">0.03 ms</text><text x="20" y="386">@asamuzakjp/dom-selector 8.3.2</text><rect class="bar" x="300" y="372" width="18.68" height="18" fill="#217dcc"/><text x="328.68" y="386">0.11 ms</text><text x="20" y="425" class="selector">div.example &gt; p &gt; a</text><text x="20" y="451">nwsapi 2.2.27</text><rect class="bar" x="300" y="437" width="163.88" height="18" fill="#7154d9"/><text x="473.88" y="451">0.94 ms</text><text x="20" y="476" style="font-weight:700">nwsapi 2.3.0-prerelease</text><rect class="bar" x="300" y="462" width="8.66" height="18" fill="#cb3989"/><text x="318.66" y="476" style="font-weight:700">0.05 ms</text><text x="20" y="501">@asamuzakjp/dom-selector 8.3.2</text><rect class="bar" x="300" y="487" width="17.52" height="18" fill="#217dcc"/><text x="327.516" y="501">0.10 ms</text><text x="20" y="560">documentation; v26.5.0; jsdom 30.0.1; 9 rounds; 2026-09-08; 1401322b</text></svg>
