<svg xmlns="http://www.w3.org/2000/svg" width="1000" height="580" viewBox="0 0 1000 580" role="img"><title>Documentation queries</title><desc>documentation; v26.5.0; jsdom 30.0.1; 9 rounds; 2026-09-08; d3e4a784. Median milliseconds per query; lower is better. Failed correctness checks have no timing.</desc><style>text{font:14px system-ui,sans-serif;fill:#24292f}.selector{font:16px monospace;font-weight:600}.background{fill:#fff}.bar{transform-box:fill-box;transform-origin:left center;animation:fill 800ms ease-out both}@keyframes fill{from{transform:scaleX(0)}to{transform:scaleX(1)}}@media(prefers-reduced-motion:reduce){.bar{animation:none}}@media(prefers-color-scheme:dark){text{fill:#e6edf3}.background{fill:#0d1117}}</style><rect class="background" width="1000" height="580"/><text x="20" y="28" class="selector">Documentation queries</text><text x="20" y="50">Warm queries on one jsdom document. Median ms/query; lower is better.</text><text x="20" y="80" class="selector">ul li a</text><text x="20" y="106">nwsapi 2.2.27</text><rect class="bar" x="300" y="92" width="371.98" height="18" fill="#7154d9"/><text x="681.983" y="106">2.26 ms</text><text x="20" y="131" style="font-weight:700">nwsapi 2.3.0-prerelease</text><rect class="bar" x="300" y="117" width="120.1" height="18" fill="#cb3989"/><text x="430.104" y="131" style="font-weight:700">0.73 ms</text><text x="20" y="156">@asamuzakjp/dom-selector 8.3.2</text><rect class="bar" x="300" y="142" width="154.16" height="18" fill="#217dcc"/><text x="464.164" y="156">0.94 ms</text><text x="20" y="195" class="selector">dl dd a</text><text x="20" y="221">nwsapi 2.2.27</text><rect class="bar" x="300" y="207" width="380" height="18" fill="#7154d9"/><text x="690" y="221">2.31 ms</text><text x="20" y="246" style="font-weight:700">nwsapi 2.3.0-prerelease</text><rect class="bar" x="300" y="232" width="11.86" height="18" fill="#cb3989"/><text x="321.86" y="246" style="font-weight:700">0.07 ms</text><text x="20" y="271">@asamuzakjp/dom-selector 8.3.2</text><rect class="bar" x="300" y="257" width="12.98" height="18" fill="#217dcc"/><text x="322.979" y="271">0.08 ms</text><text x="20" y="310" class="selector">table tr td</text><text x="20" y="336">nwsapi 2.2.27</text><rect class="bar" x="300" y="322" width="19.63" height="18" fill="#7154d9"/><text x="329.627" y="336">0.12 ms</text><text x="20" y="361" style="font-weight:700">nwsapi 2.3.0-prerelease</text><rect class="bar" x="300" y="347" width="15.41" height="18" fill="#cb3989"/><text x="325.409" y="361" style="font-weight:700">0.09 ms</text><text x="20" y="386">@asamuzakjp/dom-selector 8.3.2</text><rect class="bar" x="300" y="372" width="17.96" height="18" fill="#217dcc"/><text x="327.956" y="386">0.11 ms</text><text x="20" y="425" class="selector">div.example &gt; p &gt; a</text><text x="20" y="451">nwsapi 2.2.27</text><rect class="bar" x="300" y="437" width="210.22" height="18" fill="#7154d9"/><text x="520.219" y="451">1.28 ms</text><text x="20" y="476" style="font-weight:700">nwsapi 2.3.0-prerelease</text><rect class="bar" x="300" y="462" width="15.87" height="18" fill="#cb3989"/><text x="325.874" y="476" style="font-weight:700">0.10 ms</text><text x="20" y="501">@asamuzakjp/dom-selector 8.3.2</text><rect class="bar" x="300" y="487" width="17.32" height="18" fill="#217dcc"/><text x="327.316" y="501">0.11 ms</text><text x="20" y="560">documentation; v26.5.0; jsdom 30.0.1; 9 rounds; 2026-09-08; d3e4a784</text></svg>
